<svg xmlns="http://www.w3.org/2000/svg" width="75" height="70" fill="none" viewBox="0 0 75 70"><path fill="#83B3D3" d="M70.7759 46.7H4.8105C2.5047 46.7.7002 48.6.7002 51v3.5c0 2.4 1.9048 4.3 4.1103 4.3h.9023v1.1c0 5.5 4.3108 10.1 9.6241 10.1H60.049c5.3133 0 9.6241-4.5 9.6241-10.1v-1.1h.9023c2.3057 0 4.1103-1.9 4.1103-4.3V51c.2005-2.3-1.7043-4.3-3.9098-4.3Zm-3.9098 13.2c0 3.9-3.0076 7-6.7169 7H15.3369c-3.7093 0-6.7168-3.2-6.7168-7v-1.1h58.246v1.1Zm5.1128-5.4c0 .7-.6015 1.3-1.203 1.3H4.7103c-.7018 0-1.203-.6-1.203-1.3V51c0-.7.6014-1.3 1.203-1.3h65.9653c.7018 0 1.203.6 1.203 1.3.1003 0 .1003 3.5.1003 3.5ZM16.3394 38.4l5.4136 4.1 5.3133-4.1 5.3133 4.1 5.3133-4.1 5.4136 4.1 5.3133-4.1 5.3133 4.1 5.4136-4.1 5.3133 4.1 6.2156-4.7-1.7043-2.5-4.5113 3.4-5.3133-4.1-5.4136 4.1-5.3133-4.1-5.3133 4.1-5.4136-4.1-5.3133 4.1-5.3133-4.1-5.3133 4.1-5.4136-4.1-5.3133 4.1-4.5113-3.4-1.7043 2.5 6.2156 4.7 5.3133-4.1ZM8.7203 31.5h60.9528c0-.6.1003-1.2.1003-1.9v-1.2C69.0716 12.7 55.0364 0 37.7932 0 20.4497 0 6.4145 12.7 5.7128 28.5v1.2c0 .6-.0045 1.2.0958 1.8h2.9117ZM37.7932 3c15.6392 0 28.4714 11.3 29.0729 25.5H8.7203C9.3218 14.4 22.154 3 37.7932 3Z"/><path fill="#83B3D3" d="M37.7932 17.3c1.052 0 1.9048-.8954 1.9048-2s-.8528-2-1.9048-2-1.9048.8954-1.9048 2 .8528 2 1.9048 2ZM29.9736 12.2c1.052 0 1.9048-.8954 1.9048-2s-.8528-2-1.9048-2-1.9048.8954-1.9048 2 .8528 2 1.9048 2ZM45.5125 12.2c1.052 0 1.9048-.8954 1.9048-2s-.8528-2-1.9048-2c-1.0519 0-1.9047.8954-1.9047 2s.8528 2 1.9047 2Z"/></svg>